<mxfile host="app.diagrams.net" modified="2023-07-02T12:43:56.809Z" agent="Mozilla/5.0 (Windows NT 10.0; Win64; x64) AppleWebKit/537.36 (KHTML, like Gecko) Chrome/114.0.0.0 Safari/537.36" etag="mHlwErg1oNltW7GttnNM" version="21.5.2" type="github">
  <diagram name="Trang-1" id="8WPnezDn6ww9EdxV7W4L">
    <mxGraphModel dx="1195" dy="645" grid="0" gridSize="10" guides="1" tooltips="1" connect="1" arrows="1" fold="1" page="1" pageScale="1" pageWidth="3000" pageHeight="5000" math="0" shadow="0">
      <root>
        <mxCell id="0" />
        <mxCell id="1" parent="0" />
        <mxCell id="tIdSaeZlRLGK4tlZDi9s-64" value="" style="rounded=1;arcSize=0;dashed=1;strokeColor=#000000;fillColor=none;gradientColor=none;dashPattern=8 4;strokeWidth=2;fontColor=#000000;" parent="1" vertex="1">
          <mxGeometry x="473" y="479" width="488" height="163" as="geometry" />
        </mxCell>
        <mxCell id="tIdSaeZlRLGK4tlZDi9s-41" value="&lt;b&gt;&lt;font color=&quot;#000000&quot;&gt;Download Module&lt;/font&gt;&lt;/b&gt;" style="fillColor=#f5f5f5;strokeColor=#666666;verticalAlign=top;fontStyle=0;fontColor=#333333;whiteSpace=wrap;html=1;strokeWidth=2;" parent="1" vertex="1">
          <mxGeometry x="491" y="508.5" width="126" height="88" as="geometry" />
        </mxCell>
        <mxCell id="tIdSaeZlRLGK4tlZDi9s-43" value="" style="rounded=0;whiteSpace=wrap;html=1;" parent="1" vertex="1">
          <mxGeometry x="896" y="380" width="36" height="71" as="geometry" />
        </mxCell>
        <mxCell id="tIdSaeZlRLGK4tlZDi9s-44" value="" style="edgeStyle=orthogonalEdgeStyle;rounded=0;orthogonalLoop=1;jettySize=auto;html=1;" parent="1" source="tIdSaeZlRLGK4tlZDi9s-30" target="tIdSaeZlRLGK4tlZDi9s-43" edge="1">
          <mxGeometry relative="1" as="geometry" />
        </mxCell>
        <mxCell id="tIdSaeZlRLGK4tlZDi9s-30" value="&lt;font style=&quot;&quot; color=&quot;#000000&quot;&gt;&lt;b&gt;Host&lt;/b&gt;&lt;/font&gt;" style="fillColor=none;strokeColor=#111212;dashed=1;verticalAlign=top;fontStyle=0;fontColor=#147EBA;whiteSpace=wrap;html=1;" parent="1" vertex="1">
          <mxGeometry x="867.25" y="242.62" width="92" height="96.25" as="geometry" />
        </mxCell>
        <mxCell id="tIdSaeZlRLGK4tlZDi9s-12" value="" style="rounded=1;arcSize=0;dashed=1;strokeColor=#000000;fillColor=none;gradientColor=none;dashPattern=8 4;strokeWidth=2;fontColor=#000000;" parent="1" vertex="1">
          <mxGeometry x="116" y="147" width="471" height="287.5" as="geometry" />
        </mxCell>
        <mxCell id="tIdSaeZlRLGK4tlZDi9s-14" value="" style="edgeStyle=orthogonalEdgeStyle;rounded=0;orthogonalLoop=1;jettySize=auto;html=1;" parent="1" source="tIdSaeZlRLGK4tlZDi9s-7" target="tIdSaeZlRLGK4tlZDi9s-8" edge="1">
          <mxGeometry relative="1" as="geometry" />
        </mxCell>
        <mxCell id="tIdSaeZlRLGK4tlZDi9s-7" value="&lt;b&gt;&lt;font color=&quot;#000000&quot;&gt;Data Sources&lt;/font&gt;&lt;/b&gt;" style="fillColor=none;strokeColor=#111212;dashed=1;verticalAlign=top;fontStyle=0;fontColor=#147EBA;whiteSpace=wrap;html=1;" parent="1" vertex="1">
          <mxGeometry x="135" y="161" width="119" height="257" as="geometry" />
        </mxCell>
        <mxCell id="tIdSaeZlRLGK4tlZDi9s-1" value="&lt;p style=&quot;line-height: normal; margin-top: 0pt; margin-bottom: 0pt; direction: ltr; unicode-bidi: embed;&quot;&gt;&lt;font style=&quot;font-size: 10px;&quot;&gt;CAN Intrusion (OTIDS)&lt;/font&gt;&lt;/p&gt;" style="rounded=0;whiteSpace=wrap;html=1;fillColor=#ffe6cc;strokeColor=#d79b00;align=center;" parent="1" vertex="1">
          <mxGeometry x="146" y="190" width="96" height="31" as="geometry" />
        </mxCell>
        <mxCell id="tIdSaeZlRLGK4tlZDi9s-2" value="&lt;p style=&quot;line-height: normal; margin-top: 0pt; margin-bottom: 0pt; direction: ltr; unicode-bidi: embed;&quot;&gt;&lt;font style=&quot;font-size: 10px;&quot;&gt;Survival Analysis for Auto. IDS&amp;nbsp;&lt;/font&gt;&lt;/p&gt;" style="rounded=0;whiteSpace=wrap;html=1;fillColor=#ffe6cc;strokeColor=#d79b00;align=center;" parent="1" vertex="1">
          <mxGeometry x="146" y="227" width="96" height="31" as="geometry" />
        </mxCell>
        <mxCell id="tIdSaeZlRLGK4tlZDi9s-3" value="&lt;p style=&quot;line-height: normal; margin-top: 0pt; margin-bottom: 0pt; direction: ltr; unicode-bidi: embed;&quot;&gt;&lt;font style=&quot;font-size: 10px;&quot;&gt;Car Hacking for Intrusion Detection&lt;/font&gt;&lt;/p&gt;" style="rounded=0;whiteSpace=wrap;html=1;fillColor=#ffe6cc;strokeColor=#d79b00;align=center;" parent="1" vertex="1">
          <mxGeometry x="145" y="264" width="97" height="31" as="geometry" />
        </mxCell>
        <mxCell id="tIdSaeZlRLGK4tlZDi9s-4" value="&lt;p style=&quot;language:en-US;line-height:normal;margin-top:0pt;margin-bottom:0pt;&lt;br/&gt;margin-right:0in;text-align:left;direction:ltr;unicode-bidi:embed&quot;&gt;&lt;font style=&quot;font-size: 10px;&quot;&gt;SynCAN&lt;/font&gt;&lt;/p&gt;" style="rounded=0;whiteSpace=wrap;html=1;fillColor=#ffe6cc;strokeColor=#d79b00;" parent="1" vertex="1">
          <mxGeometry x="145" y="301" width="97" height="31" as="geometry" />
        </mxCell>
        <mxCell id="tIdSaeZlRLGK4tlZDi9s-5" value="&lt;p style=&quot;line-height: normal; margin-top: 0pt; margin-bottom: 0pt; direction: ltr; unicode-bidi: embed;&quot;&gt;&lt;font style=&quot;font-size: 10px;&quot;&gt;Auto. CAN Bus Intrusion&lt;/font&gt;&lt;/p&gt;" style="rounded=0;whiteSpace=wrap;html=1;fillColor=#ffe6cc;strokeColor=#d79b00;align=center;" parent="1" vertex="1">
          <mxGeometry x="145" y="338" width="97" height="31" as="geometry" />
        </mxCell>
        <mxCell id="tIdSaeZlRLGK4tlZDi9s-6" value="&lt;p style=&quot;line-height: normal; margin-top: 0pt; margin-bottom: 0pt; direction: ltr; unicode-bidi: embed;&quot;&gt;&lt;font style=&quot;font-size: 10px;&quot;&gt;ROAD CAN Intrusion Dataset&lt;/font&gt;&lt;/p&gt;" style="rounded=0;whiteSpace=wrap;html=1;fillColor=#ffe6cc;strokeColor=#d79b00;align=center;" parent="1" vertex="1">
          <mxGeometry x="145" y="375" width="97" height="31" as="geometry" />
        </mxCell>
        <mxCell id="tIdSaeZlRLGK4tlZDi9s-15" value="" style="edgeStyle=orthogonalEdgeStyle;rounded=0;orthogonalLoop=1;jettySize=auto;html=1;" parent="1" source="tIdSaeZlRLGK4tlZDi9s-8" target="tIdSaeZlRLGK4tlZDi9s-9" edge="1">
          <mxGeometry relative="1" as="geometry" />
        </mxCell>
        <mxCell id="tIdSaeZlRLGK4tlZDi9s-8" value="&lt;b&gt;Split Feature&lt;/b&gt;" style="rounded=0;whiteSpace=wrap;html=1;fillColor=#e1d5e7;strokeColor=#9673a6;" parent="1" vertex="1">
          <mxGeometry x="296" y="277" width="77" height="25" as="geometry" />
        </mxCell>
        <mxCell id="tIdSaeZlRLGK4tlZDi9s-16" value="" style="edgeStyle=orthogonalEdgeStyle;rounded=0;orthogonalLoop=1;jettySize=auto;html=1;" parent="1" source="tIdSaeZlRLGK4tlZDi9s-9" target="tIdSaeZlRLGK4tlZDi9s-11" edge="1">
          <mxGeometry relative="1" as="geometry" />
        </mxCell>
        <mxCell id="tIdSaeZlRLGK4tlZDi9s-9" value="&lt;b&gt;Handle&lt;/b&gt;" style="rounded=0;whiteSpace=wrap;html=1;fillColor=#f8cecc;strokeColor=#b85450;" parent="1" vertex="1">
          <mxGeometry x="399" y="277" width="77" height="25" as="geometry" />
        </mxCell>
        <mxCell id="tIdSaeZlRLGK4tlZDi9s-11" value="&lt;b&gt;Encoding&lt;/b&gt;" style="rounded=0;whiteSpace=wrap;html=1;fillColor=#dae8fc;strokeColor=#6c8ebf;" parent="1" vertex="1">
          <mxGeometry x="502" y="277" width="69" height="25" as="geometry" />
        </mxCell>
        <mxCell id="tIdSaeZlRLGK4tlZDi9s-13" value="&lt;font style=&quot;font-size: 18px;&quot;&gt;&lt;b style=&quot;&quot;&gt;Data Preprocessing&lt;/b&gt;&lt;/font&gt;" style="text;html=1;strokeColor=none;fillColor=none;align=center;verticalAlign=middle;whiteSpace=wrap;rounded=0;" parent="1" vertex="1">
          <mxGeometry x="377" y="181" width="182" height="30" as="geometry" />
        </mxCell>
        <mxCell id="tIdSaeZlRLGK4tlZDi9s-18" value="" style="edgeStyle=orthogonalEdgeStyle;rounded=0;orthogonalLoop=1;jettySize=auto;html=1;" parent="1" source="tIdSaeZlRLGK4tlZDi9s-12" target="tIdSaeZlRLGK4tlZDi9s-17" edge="1">
          <mxGeometry relative="1" as="geometry" />
        </mxCell>
        <mxCell id="tIdSaeZlRLGK4tlZDi9s-31" value="" style="edgeStyle=orthogonalEdgeStyle;rounded=0;orthogonalLoop=1;jettySize=auto;html=1;entryX=0;entryY=0.5;entryDx=0;entryDy=0;" parent="1" source="tIdSaeZlRLGK4tlZDi9s-17" target="tIdSaeZlRLGK4tlZDi9s-30" edge="1">
          <mxGeometry relative="1" as="geometry" />
        </mxCell>
        <mxCell id="tIdSaeZlRLGK4tlZDi9s-17" value="" style="whiteSpace=wrap;html=1;fillColor=none;strokeColor=#000000;fontColor=#000000;rounded=1;arcSize=0;dashed=1;gradientColor=none;dashPattern=8 4;strokeWidth=2;" parent="1" vertex="1">
          <mxGeometry x="649" y="151" width="134" height="279" as="geometry" />
        </mxCell>
        <mxCell id="tIdSaeZlRLGK4tlZDi9s-19" value="&lt;b&gt;&lt;font color=&quot;#000000&quot;&gt;Datasets&lt;/font&gt;&lt;/b&gt;" style="fillColor=none;strokeColor=#111212;dashed=1;verticalAlign=top;fontStyle=0;fontColor=#147EBA;whiteSpace=wrap;html=1;" parent="1" vertex="1">
          <mxGeometry x="661" y="162.25" width="108" height="257" as="geometry" />
        </mxCell>
        <mxCell id="tIdSaeZlRLGK4tlZDi9s-21" value="Survival" style="rounded=0;whiteSpace=wrap;html=1;fillColor=#fff2cc;strokeColor=#d6b656;" parent="1" vertex="1">
          <mxGeometry x="673" y="227" width="84" height="31" as="geometry" />
        </mxCell>
        <mxCell id="tIdSaeZlRLGK4tlZDi9s-22" value="Car Hacking" style="rounded=0;whiteSpace=wrap;html=1;fillColor=#fff2cc;strokeColor=#d6b656;" parent="1" vertex="1">
          <mxGeometry x="673" y="264" width="85" height="31" as="geometry" />
        </mxCell>
        <mxCell id="tIdSaeZlRLGK4tlZDi9s-23" value="SynCAN" style="rounded=0;whiteSpace=wrap;html=1;fillColor=#fff2cc;strokeColor=#d6b656;" parent="1" vertex="1">
          <mxGeometry x="673" y="302" width="84" height="31" as="geometry" />
        </mxCell>
        <mxCell id="tIdSaeZlRLGK4tlZDi9s-24" value="Automotive" style="rounded=0;whiteSpace=wrap;html=1;fillColor=#fff2cc;strokeColor=#d6b656;" parent="1" vertex="1">
          <mxGeometry x="673" y="338" width="84" height="31" as="geometry" />
        </mxCell>
        <mxCell id="tIdSaeZlRLGK4tlZDi9s-25" value="ROAD" style="rounded=0;whiteSpace=wrap;html=1;fillColor=#fff2cc;strokeColor=#d6b656;" parent="1" vertex="1">
          <mxGeometry x="674" y="375" width="84" height="31" as="geometry" />
        </mxCell>
        <mxCell id="tIdSaeZlRLGK4tlZDi9s-28" value="" style="sketch=0;pointerEvents=1;shadow=0;dashed=0;html=1;strokeColor=#9673a6;fillColor=#e1d5e7;labelPosition=center;verticalLabelPosition=bottom;verticalAlign=top;outlineConnect=0;align=center;shape=mxgraph.office.services.online_hosted_services;" parent="1" vertex="1">
          <mxGeometry x="885.25" y="276.87" width="56" height="52" as="geometry" />
        </mxCell>
        <mxCell id="tIdSaeZlRLGK4tlZDi9s-35" value="URL" style="html=1;strokeWidth=1;shadow=0;dashed=0;shape=mxgraph.ios7ui.url;buttonText=;strokeColor2=#222222;fontSize=8;spacingTop=2;align=center;whiteSpace=wrap;rotation=90;" parent="1" vertex="1">
          <mxGeometry x="888.5" y="409" width="49.5" height="12.5" as="geometry" />
        </mxCell>
        <mxCell id="tIdSaeZlRLGK4tlZDi9s-40" value="" style="shadow=0;dashed=0;html=1;strokeColor=none;fillColor=#4495D1;labelPosition=center;verticalLabelPosition=bottom;verticalAlign=top;align=center;outlineConnect=0;shape=mxgraph.veeam.2d.download;" parent="1" vertex="1">
          <mxGeometry x="531.6" y="537.5" width="44.8" height="44.8" as="geometry" />
        </mxCell>
        <mxCell id="tIdSaeZlRLGK4tlZDi9s-46" value="" style="edgeStyle=orthogonalEdgeStyle;rounded=0;orthogonalLoop=1;jettySize=auto;html=1;entryX=0.5;entryY=0;entryDx=0;entryDy=0;exitX=0.5;exitY=1;exitDx=0;exitDy=0;" parent="1" source="tIdSaeZlRLGK4tlZDi9s-43" target="gQOechxw3EUP2P92AcO6-1" edge="1">
          <mxGeometry relative="1" as="geometry" />
        </mxCell>
        <mxCell id="tIdSaeZlRLGK4tlZDi9s-54" value="get_dataset_path()" style="rounded=0;whiteSpace=wrap;html=1;fillColor=#f8cecc;strokeColor=#b85450;" parent="1" vertex="1">
          <mxGeometry x="735" y="574.8" width="121" height="29.2" as="geometry" />
        </mxCell>
        <mxCell id="tIdSaeZlRLGK4tlZDi9s-56" value="list_datasets()" style="rounded=0;whiteSpace=wrap;html=1;fillColor=#fff2cc;strokeColor=#d6b656;" parent="1" vertex="1">
          <mxGeometry x="735" y="538" width="121" height="29" as="geometry" />
        </mxCell>
        <mxCell id="tIdSaeZlRLGK4tlZDi9s-57" value="download_dataset()" style="rounded=0;whiteSpace=wrap;html=1;fillColor=#d5e8d4;strokeColor=#82b366;" parent="1" vertex="1">
          <mxGeometry x="735" y="496" width="122" height="33" as="geometry" />
        </mxCell>
        <mxCell id="tIdSaeZlRLGK4tlZDi9s-58" value="Function" style="rounded=0;whiteSpace=wrap;html=1;fillColor=#e1d5e7;strokeColor=#9673a6;" parent="1" vertex="1">
          <mxGeometry x="644" y="535.9" width="66" height="33.2" as="geometry" />
        </mxCell>
        <mxCell id="tIdSaeZlRLGK4tlZDi9s-60" value="" style="endArrow=none;html=1;rounded=0;exitX=1;exitY=0.5;exitDx=0;exitDy=0;entryX=0;entryY=0.5;entryDx=0;entryDy=0;" parent="1" source="tIdSaeZlRLGK4tlZDi9s-58" target="tIdSaeZlRLGK4tlZDi9s-57" edge="1">
          <mxGeometry width="50" height="50" relative="1" as="geometry">
            <mxPoint x="610" y="408" as="sourcePoint" />
            <mxPoint x="660" y="358" as="targetPoint" />
          </mxGeometry>
        </mxCell>
        <mxCell id="tIdSaeZlRLGK4tlZDi9s-61" value="" style="endArrow=none;html=1;rounded=0;entryX=0;entryY=0.5;entryDx=0;entryDy=0;exitX=1;exitY=0.5;exitDx=0;exitDy=0;" parent="1" source="tIdSaeZlRLGK4tlZDi9s-58" target="tIdSaeZlRLGK4tlZDi9s-56" edge="1">
          <mxGeometry width="50" height="50" relative="1" as="geometry">
            <mxPoint x="610" y="408" as="sourcePoint" />
            <mxPoint x="660" y="358" as="targetPoint" />
          </mxGeometry>
        </mxCell>
        <mxCell id="tIdSaeZlRLGK4tlZDi9s-62" value="" style="endArrow=none;html=1;rounded=0;entryX=1;entryY=0.5;entryDx=0;entryDy=0;exitX=0;exitY=0.5;exitDx=0;exitDy=0;" parent="1" source="tIdSaeZlRLGK4tlZDi9s-54" target="tIdSaeZlRLGK4tlZDi9s-58" edge="1">
          <mxGeometry width="50" height="50" relative="1" as="geometry">
            <mxPoint x="610" y="408" as="sourcePoint" />
            <mxPoint x="660" y="358" as="targetPoint" />
          </mxGeometry>
        </mxCell>
        <mxCell id="tIdSaeZlRLGK4tlZDi9s-69" value="" style="edgeStyle=orthogonalEdgeStyle;rounded=0;orthogonalLoop=1;jettySize=auto;html=1;" parent="1" source="tIdSaeZlRLGK4tlZDi9s-64" target="tIdSaeZlRLGK4tlZDi9s-68" edge="1">
          <mxGeometry relative="1" as="geometry" />
        </mxCell>
        <mxCell id="tIdSaeZlRLGK4tlZDi9s-65" value="&lt;font style=&quot;font-size: 18px;&quot;&gt;&lt;b style=&quot;&quot;&gt;Candataloader Library&lt;/b&gt;&lt;/font&gt;" style="text;html=1;strokeColor=none;fillColor=none;align=center;verticalAlign=middle;whiteSpace=wrap;rounded=0;" parent="1" vertex="1">
          <mxGeometry x="569" y="612" width="212" height="30" as="geometry" />
        </mxCell>
        <mxCell id="gQOechxw3EUP2P92AcO6-8" value="" style="edgeStyle=orthogonalEdgeStyle;rounded=0;orthogonalLoop=1;jettySize=auto;html=1;" edge="1" parent="1" source="tIdSaeZlRLGK4tlZDi9s-68" target="gQOechxw3EUP2P92AcO6-7">
          <mxGeometry relative="1" as="geometry" />
        </mxCell>
        <mxCell id="tIdSaeZlRLGK4tlZDi9s-68" value="&lt;b&gt;pip install Candataloader==1.1.7&lt;/b&gt;" style="rounded=0;whiteSpace=wrap;html=1;fillColor=#f5f5f5;fontColor=#333333;strokeColor=#666666;" parent="1" vertex="1">
          <mxGeometry x="311" y="543" width="135" height="33.8" as="geometry" />
        </mxCell>
        <mxCell id="tIdSaeZlRLGK4tlZDi9s-72" value="OTIDS" style="rounded=0;whiteSpace=wrap;html=1;fillColor=#fff2cc;strokeColor=#d6b656;" parent="1" vertex="1">
          <mxGeometry x="673" y="190" width="84" height="31" as="geometry" />
        </mxCell>
        <mxCell id="gQOechxw3EUP2P92AcO6-1" value="Requests Library" style="rounded=0;whiteSpace=wrap;html=1;fillColor=#bac8d3;strokeColor=#23445d;" vertex="1" parent="1">
          <mxGeometry x="878.25" y="497" width="70" height="31" as="geometry" />
        </mxCell>
        <mxCell id="gQOechxw3EUP2P92AcO6-4" value="" style="endArrow=none;html=1;rounded=0;entryX=0;entryY=0.5;entryDx=0;entryDy=0;exitX=1;exitY=0.5;exitDx=0;exitDy=0;" edge="1" parent="1" source="tIdSaeZlRLGK4tlZDi9s-57" target="gQOechxw3EUP2P92AcO6-1">
          <mxGeometry width="50" height="50" relative="1" as="geometry">
            <mxPoint x="581" y="459" as="sourcePoint" />
            <mxPoint x="631" y="409" as="targetPoint" />
          </mxGeometry>
        </mxCell>
        <mxCell id="gQOechxw3EUP2P92AcO6-6" value="" style="endArrow=none;html=1;rounded=0;entryX=0;entryY=0.5;entryDx=0;entryDy=0;exitX=1;exitY=0.5;exitDx=0;exitDy=0;" edge="1" parent="1" source="tIdSaeZlRLGK4tlZDi9s-41" target="tIdSaeZlRLGK4tlZDi9s-58">
          <mxGeometry width="50" height="50" relative="1" as="geometry">
            <mxPoint x="581" y="462" as="sourcePoint" />
            <mxPoint x="631" y="412" as="targetPoint" />
          </mxGeometry>
        </mxCell>
        <mxCell id="gQOechxw3EUP2P92AcO6-10" value="" style="edgeStyle=orthogonalEdgeStyle;rounded=0;orthogonalLoop=1;jettySize=auto;html=1;" edge="1" parent="1" source="gQOechxw3EUP2P92AcO6-7" target="gQOechxw3EUP2P92AcO6-9">
          <mxGeometry relative="1" as="geometry" />
        </mxCell>
        <mxCell id="gQOechxw3EUP2P92AcO6-7" value="Import&amp;nbsp; Function" style="rounded=0;whiteSpace=wrap;html=1;fillColor=#dae8fc;strokeColor=#6c8ebf;" vertex="1" parent="1">
          <mxGeometry x="214" y="541.95" width="64" height="37.1" as="geometry" />
        </mxCell>
        <mxCell id="gQOechxw3EUP2P92AcO6-9" value="Get Dataset" style="rounded=0;whiteSpace=wrap;html=1;fillColor=#f8cecc;strokeColor=#b85450;" vertex="1" parent="1">
          <mxGeometry x="116" y="541.35" width="64" height="37.1" as="geometry" />
        </mxCell>
      </root>
    </mxGraphModel>
  </diagram>
</mxfile>
